<svg width="20" height="20" viewBox="0 0 20 20" fill="none" xmlns="http://www.w3.org/2000/svg">
<g clip-path="url(#clip0_213_3948)">
<path fill-rule="evenodd" clip-rule="evenodd" d="M9.99967 2.5C5.85754 2.5 2.49967 5.85787 2.49967 10C2.49967 14.1421 5.85754 17.5 9.99967 17.5C14.1418 17.5 17.4997 14.1421 17.4997 10C17.4997 5.85787 14.1418 2.5 9.99967 2.5ZM0.833008 10C0.833008 4.93739 4.93706 0.833336 9.99967 0.833336C15.0623 0.833336 19.1663 4.93739 19.1663 10C19.1663 15.0626 15.0623 19.1667 9.99967 19.1667C4.93706 19.1667 0.833008 15.0626 0.833008 10ZM9.16634 14.1667C9.16634 13.7064 9.53944 13.3333 9.99967 13.3333H10.008C10.4682 13.3333 10.8413 13.7064 10.8413 14.1667C10.8413 14.6269 10.4682 15 10.008 15H9.99967C9.53944 15 9.16634 14.6269 9.16634 14.1667Z" fill="#CCCFDE"/>
<path d="M9.08854 6.89272C9.42787 6.69329 9.82684 6.62039 10.2148 6.68693C10.6027 6.75347 10.9546 6.95516 11.2081 7.25628C11.4615 7.55739 11.6003 7.9385 11.5997 8.33209L11.5997 8.33333C11.5997 8.72428 11.2954 9.13185 10.7208 9.51496C10.4588 9.68961 10.1909 9.82415 9.98518 9.91558C9.88352 9.96076 9.72524 10.0215 9.66905 10.0429C9.23271 10.1886 8.99695 10.6604 9.14244 11.0969C9.28798 11.5335 9.75991 11.7694 10.1965 11.6239L10.2086 11.6193C10.2999 11.5845 10.5354 11.4949 10.6621 11.4386C10.9251 11.3217 11.2822 11.1437 11.6453 10.9017C12.3205 10.4516 13.266 9.60939 13.2663 8.3341C13.2674 7.54707 12.9899 6.78504 12.4831 6.18294C11.9761 5.58072 11.2724 5.17734 10.4965 5.04426C9.72067 4.91118 8.92274 5.05698 8.24407 5.45584C7.5654 5.8547 7.04979 6.48087 6.78856 7.22347C6.63584 7.65762 6.86398 8.13339 7.29814 8.28611C7.7323 8.43884 8.20806 8.2107 8.36079 7.77654C8.4914 7.40524 8.7492 7.09215 9.08854 6.89272Z" fill="#CCCFDE"/>
</g>
<defs>
<clipPath id="clip0_213_3948">
<rect width="20" height="20" fill="white"/>
</clipPath>
</defs>
</svg>
