<svg width="22" height="22" viewBox="0 0 22 22" fill="none" xmlns="http://www.w3.org/2000/svg">
<path fill-rule="evenodd" clip-rule="evenodd" d="M0 11C0 4.92472 4.92472 0 11 0C17.0753 0 22 4.92472 22 11C22 17.0753 17.0753 22 11 22C4.92472 22 0 17.0753 0 11ZM11 2C6.02928 2 2 6.02928 2 11C2 15.9707 6.02928 20 11 20C15.9707 20 20 15.9707 20 11C20 6.02928 15.9707 2 11 2ZM9.99 7C9.99 6.44772 10.4377 6 10.99 6H11C11.5523 6 12 6.44772 12 7C12 7.55228 11.5523 8 11 8H10.99C10.4377 8 9.99 7.55228 9.99 7ZM11 10C11.5523 10 12 10.4477 12 11V15C12 15.5523 11.5523 16 11 16C10.4477 16 10 15.5523 10 15V11C10 10.4477 10.4477 10 11 10Z" fill="white"/>
</svg>
