<svg width="22" height="20" viewBox="0 0 22 20" fill="none" xmlns="http://www.w3.org/2000/svg">
<path fill-rule="evenodd" clip-rule="evenodd" d="M11.7802 2.55952C11.3144 1.73603 10.1232 1.75041 9.67735 2.58488L2.2777 16.4345C1.85061 17.2339 2.42981 18.2 3.3361 18.2H18.5707C19.4898 18.2 20.0677 17.2091 19.6151 16.4091L11.7802 2.55952ZM8.26615 1.8309C9.30647 -0.11623 12.0858 -0.149754 13.1728 1.7717L21.0077 15.6213C22.0637 17.4879 20.7152 19.8 18.5707 19.8H3.3361C1.22141 19.8 -0.130042 17.5457 0.86649 15.6805L8.26615 1.8309ZM11 6.25C11.4142 6.25 11.75 6.58579 11.75 7V12.5C11.75 12.9142 11.4142 13.25 11 13.25C10.5858 13.25 10.25 12.9142 10.25 12.5V7C10.25 6.58579 10.5858 6.25 11 6.25ZM11 16C11.5523 16 12 15.5523 12 15C12 14.4477 11.5523 14 11 14C10.4477 14 10 14.4477 10 15C10 15.5523 10.4477 16 11 16Z" fill="#392B10"/>
</svg>
