<svg width="20" height="20" viewBox="0 0 20 20" fill="none" xmlns="http://www.w3.org/2000/svg">
    <path fill-rule="evenodd" clip-rule="evenodd" d="M4.41073 4.41074C4.73617 4.0853 5.26381 4.0853 5.58925 4.41074L9.99999 8.82149L14.4107 4.41074C14.7362 4.0853 15.2638 4.0853 15.5892 4.41074C15.9147 4.73618 15.9147 5.26382 15.5892 5.58925L11.1785 10L15.5892 14.4107C15.9147 14.7362 15.9147 15.2638 15.5892 15.5893C15.2638 15.9147 14.7362 15.9147 14.4107 15.5893L9.99999 11.1785L5.58925 15.5893C5.26381 15.9147 4.73617 15.9147 4.41073 15.5893C4.0853 15.2638 4.0853 14.7362 4.41073 14.4107L8.82148 10L4.41073 5.58925C4.0853 5.26382 4.0853 4.73618 4.41073 4.41074Z" fill="#C5D3D3"/>
</svg>
