<svg width="16" height="16" viewBox="0 0 16 16" fill="none" xmlns="http://www.w3.org/2000/svg">
    <g clip-path="url(#clip0_42_658)">
        <path fill-rule="evenodd" clip-rule="evenodd" d="M8.00002 2C4.68631 2 2.00002 4.68629 2.00002 8C2.00002 11.3137 4.68631 14 8.00002 14C11.3137 14 14 11.3137 14 8C14 4.68629 11.3137 2 8.00002 2ZM0.666687 8C0.666687 3.94991 3.94993 0.666664 8.00002 0.666664C12.0501 0.666664 15.3334 3.94991 15.3334 8C15.3334 12.0501 12.0501 15.3333 8.00002 15.3333C3.94993 15.3333 0.666687 12.0501 0.666687 8ZM8.00002 4.66666C8.36821 4.66666 8.66669 4.96514 8.66669 5.33333V8C8.66669 8.36819 8.36821 8.66666 8.00002 8.66666C7.63183 8.66666 7.33335 8.36819 7.33335 8V5.33333C7.33335 4.96514 7.63183 4.66666 8.00002 4.66666ZM7.33335 10.6667C7.33335 10.2985 7.63183 10 8.00002 10H8.00669C8.37488 10 8.67335 10.2985 8.67335 10.6667C8.67335 11.0349 8.37488 11.3333 8.00669 11.3333H8.00002C7.63183 11.3333 7.33335 11.0349 7.33335 10.6667Z" fill="#FF392E" />
    </g>
    <defs>
        <clipPath id="clip0_42_658">
            <rect width="16" height="16" fill="white" />
        </clipPath>
    </defs>
</svg>