<svg width="16" height="16" viewBox="0 0 16 16" fill="none" xmlns="http://www.w3.org/2000/svg">
<path d="M14.2812 9.57227C13.8159 10.8908 12.9708 12.042 11.8521 12.8809C10.7336 13.7199 9.39178 14.2089 7.99575 14.2864C6.70525 14.2866 5.44596 13.8896 4.38892 13.1492C3.33188 12.409 2.52833 11.3613 2.0874 10.1484" stroke="#717171" stroke-width="1.14286" stroke-linecap="round" stroke-linejoin="round"/>
<path d="M1.71045 6.42944C2.59041 4.02001 5.29316 1.71533 7.99591 1.71533C9.2927 1.71898 10.5566 2.12364 11.6144 2.87382C12.6722 3.62402 13.472 4.68302 13.9043 5.90565" stroke="#717171" stroke-width="1.14286" stroke-linecap="round" stroke-linejoin="round"/>
<path d="M15.0147 11.8815C14.814 10.9327 14.6537 10.4274 14.2829 9.57666C13.3741 9.76456 12.8689 9.92501 11.978 10.3084" stroke="#717171" stroke-width="1.14286" stroke-linecap="round" stroke-linejoin="round"/>
<path d="M1.15967 4.08447C1.2896 5.04564 1.41213 5.5614 1.71888 6.43723C2.63906 6.3171 3.1548 6.19446 4.07163 5.878" stroke="#717171" stroke-width="1.14286" stroke-linecap="round" stroke-linejoin="round"/>
</svg>
