<svg width="8" height="8" viewBox="0 0 8 8" fill="none" xmlns="http://www.w3.org/2000/svg">
<path d="M5.7928 0.499999L0.7928 5.5C0.516658 5.77614 0.516658 6.22386 0.7928 6.5C1.06894 6.77614 1.51666 6.77614 1.7928 6.5L6.7928 1.5C7.06894 1.22386 7.06894 0.776142 6.7928 0.499999C6.51666 0.223857 6.06894 0.223857 5.7928 0.499999Z" fill="#1E222E" fill-opacity="0.32"/>
<path d="M6.7928 3.5L3.7928 6.5C3.51666 6.77614 3.51666 7.22386 3.7928 7.5C4.06894 7.77614 4.51666 7.77614 4.7928 7.5L7.7928 4.5C8.06894 4.22386 8.06894 3.77614 7.7928 3.5C7.51666 3.22386 7.06894 3.22386 6.7928 3.5Z" fill="#1E222E" fill-opacity="0.32"/>
</svg>
