<svg width="14" height="14" viewBox="0 0 14 14" fill="none" xmlns="http://www.w3.org/2000/svg">
<path fill-rule="evenodd" clip-rule="evenodd" d="M3.08751 3.08752C3.31532 2.85972 3.68466 2.85972 3.91247 3.08752L6.99999 6.17504L10.0875 3.08752C10.3153 2.85972 10.6847 2.85972 10.9125 3.08752C11.1403 3.31533 11.1403 3.68467 10.9125 3.91248L7.82495 7L10.9125 10.0875C11.1403 10.3153 11.1403 10.6847 10.9125 10.9125C10.6847 11.1403 10.3153 11.1403 10.0875 10.9125L6.99999 7.82496L3.91247 10.9125C3.68466 11.1403 3.31532 11.1403 3.08751 10.9125C2.85971 10.6847 2.85971 10.3153 3.08751 10.0875L6.17503 7L3.08751 3.91248C2.85971 3.68467 2.85971 3.31533 3.08751 3.08752Z" fill="#485A6A"/>
</svg>
